<?xml version="1.0" encoding="UTF-8"?>
<!DOCTYPE svg PUBLIC "-//W3C//DTD SVG 1.1//EN" "http://www.w3.org/Graphics/SVG/1.1/DTD/svg11.dtd">
<svg xmlns="http://www.w3.org/2000/svg" version="1.1" width="550px" height="550px" style="shape-rendering:geometricPrecision; text-rendering:geometricPrecision; image-rendering:optimizeQuality; fill-rule:evenodd; clip-rule:evenodd" xmlns:xlink="http://www.w3.org/1999/xlink">
<g><path style="opacity:0.998" fill="#24b4f0" d="M 75.5,232.5 C 76.9778,232.238 78.3112,232.571 79.5,233.5C 82.973,237.395 86.6396,241.061 90.5,244.5C 85.9387,248.64 81.6054,252.973 77.5,257.5C 72.8333,253.5 68.5,249.167 64.5,244.5C 68.1886,240.48 71.8553,236.48 75.5,232.5 Z"/></g>
<g><path style="opacity:0.976" fill="#595959" d="M 363.5,265.5 C 360.5,265.5 357.5,265.5 354.5,265.5C 354.5,276.167 354.5,286.833 354.5,297.5C 349.5,297.5 344.5,297.5 339.5,297.5C 339.5,286.833 339.5,276.167 339.5,265.5C 337.833,265.5 336.167,265.5 334.5,265.5C 334.5,261.167 334.5,256.833 334.5,252.5C 335.833,252.5 337.167,252.5 338.5,252.5C 338.5,248.167 338.5,243.833 338.5,239.5C 344.167,239.5 349.833,239.5 355.5,239.5C 355.5,243.833 355.5,248.167 355.5,252.5C 358.518,252.335 361.518,252.502 364.5,253C 363.536,257.066 363.203,261.233 363.5,265.5 Z"/></g>
<g><path style="opacity:0.992" fill="#96d156" d="M 61.5,246.5 C 66.1186,250.452 70.4519,254.785 74.5,259.5C 70.8027,264.031 66.6361,268.031 62,271.5C 57.179,268.012 53.0124,263.846 49.5,259C 53.7036,254.964 57.7036,250.798 61.5,246.5 Z"/></g>
<g><path style="opacity:0.998" fill="#21b4f0" d="M 91.5,246.5 C 96.1246,250.458 100.458,254.791 104.5,259.5C 100.544,263.825 96.5442,268.159 92.5,272.5C 87.8333,268.5 83.5,264.167 79.5,259.5C 83.5219,255.146 87.5219,250.813 91.5,246.5 Z"/></g>
<g><path style="opacity:0.982" fill="#5b5b5b" d="M 291.5,251.5 C 295.514,251.334 299.514,251.501 303.5,252C 306.102,252.883 308.269,254.383 310,256.5C 310.49,255.207 310.657,253.873 310.5,252.5C 316.176,252.334 321.843,252.501 327.5,253C 326.167,267.667 326.167,282.333 327.5,297C 321.843,297.499 316.176,297.666 310.5,297.5C 310.649,296.448 310.483,295.448 310,294.5C 296.017,302.634 285.017,299.634 277,285.5C 272.501,273.656 275.001,263.489 284.5,255C 286.925,253.787 289.259,252.621 291.5,251.5 Z M 311.5,276.5 C 310.326,277.514 309.66,278.847 309.5,280.5C 306.401,284.24 302.401,285.407 297.5,284C 290.048,278.745 289.715,273.078 296.5,267C 305.174,264.153 310.174,267.32 311.5,276.5 Z"/></g>
<g><path style="opacity:0.971" fill="#5c5c5c" d="M 391.5,250.5 C 409.518,251.184 418.185,260.517 417.5,278.5C 406.5,278.5 395.5,278.5 384.5,278.5C 385.377,286.287 389.711,289.12 397.5,287C 398.5,286.167 399.5,285.333 400.5,284.5C 405.792,283.505 411.125,283.172 416.5,283.5C 414.352,292.282 408.685,297.449 399.5,299C 373.606,299.73 364.106,287.563 371,262.5C 375.875,255.052 382.709,251.052 391.5,250.5 Z M 402.5,268.5 C 396.402,269.117 390.735,268.45 385.5,266.5C 389.367,262.258 394.034,261.425 399.5,264C 400.386,265.615 401.386,267.115 402.5,268.5 Z"/></g>
<g><path style="opacity:0.986" fill="#5c5c5c" d="M 481.5,251.5 C 485.182,251.335 488.848,251.501 492.5,252C 495.548,252.606 498.048,254.106 500,256.5C 500.49,255.207 500.657,253.873 500.5,252.5C 505.833,252.5 511.167,252.5 516.5,252.5C 516.5,267.5 516.5,282.5 516.5,297.5C 511.167,297.5 505.833,297.5 500.5,297.5C 500.719,296.325 500.386,295.325 499.5,294.5C 490.918,300.97 482.251,300.97 473.5,294.5C 465.759,286.769 463.259,277.435 466,266.5C 469.106,259.225 474.272,254.225 481.5,251.5 Z M 489.5,265.5 C 498.528,266.027 502.028,270.694 500,279.5C 497.103,284.155 492.937,285.655 487.5,284C 485.697,283.363 484.364,282.197 483.5,280.5C 480.673,273.316 482.673,268.316 489.5,265.5 Z"/></g>
<g><path style="opacity:0.972" fill="#5a5a5a" d="M 136.5,252.5 C 141.833,252.5 147.167,252.5 152.5,252.5C 152.5,267.5 152.5,282.5 152.5,297.5C 147.167,297.5 141.833,297.5 136.5,297.5C 136.5,282.5 136.5,267.5 136.5,252.5 Z"/></g>
<g><path style="opacity:0.962" fill="#5a5a5a" d="M 188.5,251.5 C 198.158,250.077 204.991,253.743 209,262.5C 209.5,274.162 209.667,285.829 209.5,297.5C 204.167,297.5 198.833,297.5 193.5,297.5C 193.666,288.161 193.5,278.827 193,269.5C 191.865,266.141 189.532,264.808 186,265.5C 183.648,265.305 181.648,265.972 180,267.5C 178.323,277.364 178.157,287.197 179.5,297C 173.843,297.499 168.176,297.666 162.5,297.5C 162.5,282.5 162.5,267.5 162.5,252.5C 168.176,252.334 173.843,252.501 179.5,253C 177.932,258.627 178.932,258.961 182.5,254C 184.611,253.155 186.611,252.322 188.5,251.5 Z"/></g>
<g><path style="opacity:0.975" fill="#5b5b5b" d="M 245.5,251.5 C 254.931,250.628 261.764,254.295 266,262.5C 266.178,274.076 266.678,285.576 267.5,297C 261.843,297.499 256.176,297.666 250.5,297.5C 250.923,287.42 250.423,277.42 249,267.5C 245.838,263.852 242.338,263.519 238.5,266.5C 237.416,267.665 236.583,268.998 236,270.5C 235.5,279.494 235.334,288.494 235.5,297.5C 230.167,297.5 224.833,297.5 219.5,297.5C 219.5,282.5 219.5,267.5 219.5,252.5C 224.833,252.5 230.167,252.5 235.5,252.5C 234.813,258.599 236.146,259.099 239.5,254C 241.723,253.434 243.723,252.6 245.5,251.5 Z"/></g>
<g><path style="opacity:0.977" fill="#5c5c5c" d="M 453.5,252.5 C 455.167,252.5 456.833,252.5 458.5,252.5C 458.819,257.363 458.486,262.03 457.5,266.5C 454.15,266.335 450.817,266.502 447.5,267C 445.448,267.93 443.948,269.43 443,271.5C 441.314,280.023 441.147,288.523 442.5,297C 436.843,297.499 431.176,297.666 425.5,297.5C 425.5,282.5 425.5,267.5 425.5,252.5C 431.176,252.334 436.843,252.501 442.5,253C 441.409,255.064 441.242,257.231 442,259.5C 444.494,255.002 448.327,252.668 453.5,252.5 Z"/></g>
<g><path style="opacity:0.468" fill="#858585" d="M 453.5,252.5 C 455.265,251.539 457.265,251.205 459.5,251.5C 459.828,256.875 459.495,262.208 458.5,267.5C 457.893,267.376 457.56,267.043 457.5,266.5C 458.486,262.03 458.819,257.363 458.5,252.5C 456.833,252.5 455.167,252.5 453.5,252.5 Z"/></g>
<g><path style="opacity:0.985" fill="#95d155" d="M 106.5,261.5 C 111.146,265.479 115.479,269.812 119.5,274.5C 115.82,279.179 111.486,283.179 106.5,286.5C 102.167,282.833 98.1667,278.833 94.5,274.5C 98.5219,270.146 102.522,265.813 106.5,261.5 Z"/></g>
<g><path style="opacity:0.995" fill="#16b2f0" d="M 46.5,261.5 C 51.1456,265.479 55.479,269.812 59.5,274.5C 55.5154,278.985 51.3487,283.318 47,287.5C 42.3147,283.648 38.148,279.315 34.5,274.5C 38.1822,269.82 42.1822,265.487 46.5,261.5 Z"/></g>
<g><path style="opacity:0.989" fill="#95d155" d="M 76.5,262.5 C 81.4194,265.748 85.7528,269.748 89.5,274.5C 85.5154,278.985 81.3487,283.318 77,287.5C 72.6513,283.318 68.4846,278.985 64.5,274.5C 68.576,270.485 72.576,266.485 76.5,262.5 Z"/></g>
<g><path style="opacity:0.248" fill="#8e8e8e" d="M 334.5,252.5 C 334.5,256.833 334.5,261.167 334.5,265.5C 336.167,265.5 337.833,265.5 339.5,265.5C 339.5,276.167 339.5,286.833 339.5,297.5C 338.506,287.347 338.172,277.014 338.5,266.5C 336.833,266.5 335.167,266.5 333.5,266.5C 333.181,261.637 333.514,256.97 334.5,252.5 Z"/></g>
<g><path style="opacity:0.291" fill="#7a7a7a" d="M 363.5,265.5 C 361.052,266.473 358.385,266.806 355.5,266.5C 355.828,277.014 355.494,287.347 354.5,297.5C 354.5,286.833 354.5,276.167 354.5,265.5C 357.5,265.5 360.5,265.5 363.5,265.5 Z"/></g>
<g><path style="opacity:0.592" fill="#838383" d="M 385.5,266.5 C 390.735,268.45 396.402,269.117 402.5,268.5C 396.69,269.49 390.69,269.823 384.5,269.5C 384.263,268.209 384.596,267.209 385.5,266.5 Z"/></g>
<g><path style="opacity:0.995" fill="#1bb3f0" d="M 90.5,276.5 C 95.7122,280.038 100.379,284.371 104.5,289.5C 100.515,293.985 96.3487,298.318 92,302.5C 87.4529,298.289 83.2862,293.789 79.5,289C 83.7332,285.244 87.3998,281.078 90.5,276.5 Z"/></g>
<g><path style="opacity:0.995" fill="#28b4f0" d="M 61.5,276.5 C 66.1186,280.452 70.4519,284.785 74.5,289.5C 70.5154,293.985 66.3487,298.318 62,302.5C 57.6237,298.292 53.457,293.959 49.5,289.5C 53.5219,285.146 57.5219,280.813 61.5,276.5 Z"/></g>
<g><path style="opacity:0.063" fill="#b1b1b1" d="M 311.5,276.5 C 311.771,278.38 311.104,279.713 309.5,280.5C 309.66,278.847 310.326,277.514 311.5,276.5 Z"/></g>
<g><path style="opacity:0.996" fill="#95d156" d="M 76.5,291.5 C 81.1456,295.479 85.479,299.812 89.5,304.5C 85.4931,308.84 81.1598,312.84 76.5,316.5C 72.1667,312.833 68.1667,308.833 64.5,304.5C 68.5219,300.146 72.5219,295.813 76.5,291.5 Z"/></g>
</svg>
